<?xml version="1.0" encoding="UTF-8"?>
<svg version="1.1" xmlns="http://www.w3.org/2000/svg" width="256" height="256">
  
	<!-- Corpo Principal - alteração genetica:cores -->
  <g id="frog-corpo" class="part-corpo">
    <path id="body-main" d="M0,0 L8,0 L18,4 L23,8 L27,14 L27,16 L35,14 L50,13 L68,15 L75,6 L84,1 L88,0 L96,0 L106,4 L111,8 L116,16 L118,24 L118,34 L124,43 L127,52 L127,67 L123,77 L114,87 L108,91 L106,91 L113,106 L120,102 L130,102 L135,105 L139,110 L141,115 L141,129 L137,140 L129,150 L127,151 L136,154 L144,158 L147,162 L146,168 L138,170 L139,174 L137,178 L135,179 L128,179 L124,177 L122,181 L120,182 L113,182 L104,175 L94,165 L90,166 L96,176 L96,181 L93,184 L87,184 L81,180 L79,185 L75,188 L69,187 L67,184 L66,178 L62,181 L55,181 L52,178 L52,172 L56,169 L37,169 L41,173 L41,178 L38,181 L31,181 L26,178 L24,185 L20,188 L15,187 L12,184 L11,178 L7,182 L0,183 L-3,179 L-2,173 L3,166 L2,165 L-12,179 L-17,182 L-24,182 L-27,179 L-27,176 L-33,179 L-39,179 L-43,175 L-42,170 L-50,168 L-51,167 L-51,161 L-45,156 L-32,152 L-38,144 L-43,136 L-45,129 L-45,115 L-41,107 L-37,103 L-34,102 L-24,102 L-18,105 L-16,105 L-10,91 L-15,89 L-23,82 L-29,73 L-31,67 L-31,52 L-27,41 L-22,34 L-22,23 L-18,12 L-13,6 L-4,1 Z" 
          fill="#8EB456" transform="translate(80,30)"/>
  </g>
  
	<!-- Contorno do Corpo - alteração genetica:cores -->
  <g id="frog-contorno" class="part-contorno">
  <path id="body-outline" d="M0,0 L8,0 L18,4 L23,8 L27,14 L27,16 L35,14 L50,13 L68,15 L75,6 L84,1 L88,0 L96,0 L106,4 L111,8 L116,16 L118,24 L118,34 L124,43 L127,52 L127,67 L123,77 L114,87 L108,91 L106,91 L113,106 L120,102 L130,102 L135,105 L139,110 L141,115 L141,129 L137,140 L129,150 L127,151 L136,154 L144,158 L147,162 L146,168 L138,170 L139,174 L137,178 L135,179 L128,179 L124,177 L122,181 L120,182 L113,182 L104,175 L94,165 L90,166 L96,176 L96,181 L93,184 L87,184 L81,180 L79,185 L75,188 L69,187 L67,184 L66,178 L62,181 L55,181 L52,178 L52,172 L56,169 L37,169 L41,173 L41,178 L38,181 L31,181 L26,178 L24,185 L20,188 L15,187 L12,184 L11,178 L7,182 L0,183 L-3,179 L-2,173 L3,166 L2,165 L-12,179 L-17,182 L-24,182 L-27,179 L-27,176 L-33,179 L-39,179 L-43,175 L-42,170 L-50,168 L-51,167 L-51,161 L-45,156 L-32,152 L-38,144 L-43,136 L-45,129 L-45,115 L-41,107 L-37,103 L-34,102 L-24,102 L-18,105 L-16,105 L-10,91 L-15,89 L-23,82 L-29,73 L-31,67 L-31,52 L-27,41 L-22,34 L-22,23 L-18,12 L-13,6 L-4,1 Z M-2,5 L-9,9 L-15,16 L-17,20 L-17,36 L-23,43 L-26,50 L-27,55 L-27,65 L-23,75 L-15,84 L1,92 L5,93 L6,96 L-3,93 L-6,93 L-11,104 L-13,109 L-14,116 L-14,133 L-9,145 L-2,154 L3,157 L-1,141 L-3,133 L-3,123 L-1,123 L1,138 L4,150 L8,161 L7,168 L2,175 L2,178 L6,177 L11,172 L15,173 L16,182 L20,183 L21,181 L22,172 L27,173 L33,177 L37,176 L32,171 L26,164 L21,151 L18,139 L16,121 L18,122 L22,146 L27,160 L37,164 L55,164 L65,160 L70,148 L73,137 L75,122 L77,122 L77,131 L73,147 L67,163 L62,170 L56,174 L56,177 L62,176 L68,171 L71,172 L72,183 L76,182 L78,173 L83,174 L87,179 L91,180 L92,177 L86,167 L87,161 L92,148 L95,136 L97,123 L99,123 L98,134 L93,153 L92,158 L100,152 L106,143 L110,132 L110,115 L108,106 L102,93 L90,95 L91,93 L104,88 L113,82 L120,73 L123,65 L123,55 L120,45 L114,37 L113,32 L113,20 L108,12 L102,7 L98,5 L86,5 L79,9 L72,17 L71,21 L57,18 L38,18 L29,20 L25,20 L20,12 L14,7 L9,5 Z" 
          fill="#2B4C1F" transform="translate(80,30)"/>
  </g>
  
	<!-- Barriga - alteração genetica: cores, pode também inserir desenhos, formas, formatos ou preenchimentos por cima desde que caibam -->
  <g id="frog-barriga" class="part-barriga">
    <path id="belly-main" d="M0,0 L12,0 L24,4 L29,8 L34,17 L33,30 L30,44 L25,59 L20,62 L14,64 L-4,64 L-14,60 L-19,46 L-23,22 L-22,16 L-16,8 L-7,2 Z" 
          fill="#C4D76D" transform="translate(121,130)"/>
  </g>

	<!-- Par de Pernas Traseiras - alteração genetica:cores -->  
  <g id="frog-pernas" class="part-pernas">
    <path id="leg-back-left" d="M0,0 L8,0 L16,6 L16,25 L19,35 L24,44 L31,52 L33,53 L31,57 L20,68 L14,72 L10,72 L11,67 L21,57 L17,58 L6,65 L-1,69 L-5,69 L-4,64 L4,58 L7,55 L-9,59 L-14,59 L-12,55 L-6,52 L3,50 L15,49 L11,46 L5,42 L0,37 L-5,30 L-8,21 L-8,10 L-3,2 Z" 
          fill="#8CB255" transform="translate(47,136)"/>
	<path id="leg-back-right" d="M0,0 L9,1 L13,6 L15,12 L15,20 L11,32 L2,42 L-8,48 L-8,49 L8,51 L19,55 L21,59 L15,59 L6,56 L0,55 L3,58 L11,64 L12,69 L7,69 L-11,57 L-14,57 L-4,67 L-3,72 L-9,71 L-22,59 L-26,55 L-24,51 L-19,46 L-15,41 L-10,30 L-9,25 L-9,6 L-3,1 Z" 
          fill="#8CB255" transform="translate(202,136)"/>
  </g>
  
	<!-- Par de Olhos - alteração genetica:cores sempre diferentes da do corpo -->
  <g id="frog-olhos" class="part-olhos">
    <path id="eye-left" d="M0,0 L7,0 L13,4 L16,9 L16,17 L13,23 L7,27 L0,27 L-6,23 L-9,18 L-9,10 L-5,4 Z M-1,6 L-1,10 L3,9 L2,6 Z" 
          fill="#2B4D20" transform="translate(79,43)"/>
    <path id="eye-right" d="M0,0 L7,0 L12,3 L16,8 L16,19 L13,24 L7,27 L-2,26 L-8,19 L-8,8 L-3,2 Z M-1,6 L-1,10 L3,9 L2,6 Z" 
          fill="#2B4D20" transform="translate(169,43)"/>
  </g>
  
  <!-- Par de Bochechas - alteração genetica:cores e formas/formatos -->
  <g id="frog-cheeks" class="part-cheeks">
    <path id="cheek-left" d="M0,0 L10,0 L15,3 L17,5 L17,14 L12,19 L9,20 L-1,20 L-7,15 L-8,8 L-5,3 Z" 
          fill="#F29E7B" transform="translate(69,72)"/>
    <path id="cheek-right" d="M0,0 L10,0 L16,4 L18,6 L18,14 L13,19 L11,20 L1,20 L-5,16 L-6,14 L-6,5 Z" 
          fill="#F29E7B" transform="translate(176,72)"/>
  </g>
  
  <!-- Mancha da Cabeça - alteração genetica:cores e formas/formatos -->
  <g id="frog-cabeca" class="part-cabeca">
    <path id="detail-head" d="M0,0 L19,0 L29,2 L27,3 L25,8 L19,13 L17,14 L4,14 L-4,9 L-7,4 L-9,2 Z" 
          fill="#6A9641" transform="translate(118,48)"/>
  </g>
    
	<!-- Manchas do par de ombros - alteração genetica:cores, também pode usar de opção de com e sem elas -->
   <g id="frog-ombros" class="part-ombros">		  
	<path id="detail-left" d="M0,0 L3,0 L10,16 L11,22 L11,30 L5,29 L0,25 L-4,15 L-6,8 L-6,3 L-9,2 Z" 
          fill="#6A9641" transform="translate(179,123)"/>
    <path id="detail-right" d="M0,0 L10,2 L7,14 L3,23 L-2,27 L-8,28 L-7,16 Z" 
          fill="#6A9641" transform="translate(74,123)"/>
  </g>		  

	<!-- Boca - alteração genetica:cores e formas/formatos -->
	   <g id="frog-boca" class="part-boca">		  
    <path id="mouth" d="M0,0 L4,2 L10,7 L16,9 L39,9 L49,5 L53,0 L56,1 L55,5 L49,10 L38,14 L17,14 L6,10 L1,6 L-1,1 Z" 
          fill="#6A9641" transform="translate(100,78)"/>
  </g>
  
  <!-- Nariz - alteração genetica:cores -->
  <g id="frog-nariz" class="part-nariz">
    <path id="nariz-left" d="M0,0 L4,0 L3,5 L-2,6 L-1,1 Z" 
          fill="#2B4D20" transform="translate(136,72)"/>
    <path id="nariz-right" d="M0,0 L5,0 L6,1 L6,6 L2,5 L0,3 Z" 
          fill="#2B4D20" transform="translate(115,72)"/>
  </g>
</svg>
